<svg width="638" height="612" viewBox="0 0 638 612" fill="none" xmlns="http://www.w3.org/2000/svg">
<path d="M392.894 492.574C390.373 494.201 387.767 495.843 385.133 497.463C370.364 506.552 373.649 514.701 378.039 525.594C381.637 534.522 385.979 545.295 381.729 559.939C376.821 576.855 368.242 581.699 359.423 586.679C352.516 590.579 345.462 594.563 339.909 604.495C334.091 614.9 324.834 612.032 324.834 604.495V587.914C324.834 574.203 326.293 543.759 332.128 527.306C337.422 512.379 343.917 507.608 350.524 502.756L350.527 502.754C351.201 502.259 351.877 501.763 352.552 501.255C357.489 497.543 368.863 490.566 381.126 483.044C386.983 479.451 393.042 475.734 398.701 472.189L399.01 471.996C415.319 460.679 430.741 447.322 436.388 432.642C442.339 417.168 441.242 406.159 440.238 396.089C438.7 380.651 437.381 367.422 462.015 343.7C496.552 310.442 495.271 301.14 494.09 292.573C493.879 291.044 493.672 289.538 493.672 287.924C493.672 281.894 501.209 281.894 505.732 293.954C510.254 306.013 529.851 360.283 502.717 411.537C496.817 422.681 486.546 426.879 474.145 431.947C466.741 434.972 458.577 438.309 450.131 443.619C449.011 444.323 448.021 445.229 447.172 446.244C433.234 462.926 417.551 476.022 402.922 485.842C402.676 486.014 402.429 486.188 402.179 486.362C399.067 488.615 396.711 490.242 392.894 492.574Z" fill="#F0EBDC"/>
<path d="M488.425 444.701C512.826 433.721 519.453 415.83 525.089 400.615C526.417 397.031 527.69 393.594 529.127 390.432C532.687 381.388 542.694 385.91 539.679 397.97C539.446 398.903 539.213 400.233 538.924 401.883C537.344 410.892 534.097 429.413 520.082 444.701C509.518 456.226 510.472 466.199 511.423 476.147C511.951 481.666 512.478 487.177 511.037 492.941C505.007 517.061 491.44 524.598 468.828 527.613C453.479 529.66 441.506 526.979 431.819 524.81C424.38 523.145 418.289 521.781 413.051 523.091C400.991 526.106 394.961 523.091 394.961 517.061C394.961 511.031 405.514 501.986 413.051 498.971C420.588 495.956 434.156 488.418 447.723 474.851C450.918 471.656 453.194 469.046 455.199 466.746C461.71 459.278 465.376 455.074 488.425 444.701Z" fill="#F0EBDC"/>
<path d="M244.698 492.574C247.218 494.201 249.825 495.843 252.459 497.463C267.227 506.552 263.943 514.701 259.553 525.594C255.955 534.522 251.613 545.295 255.863 559.939C260.771 576.855 269.35 581.699 278.168 586.679C285.075 590.579 292.13 594.563 297.683 604.495C303.501 614.9 312.758 612.032 312.758 604.495V587.914C312.758 574.203 311.299 543.759 305.464 527.306C300.169 512.379 293.674 507.608 287.068 502.756L287.065 502.754C286.391 502.259 285.715 501.763 285.04 501.255C280.103 497.543 268.729 490.566 256.466 483.044C250.609 479.451 244.549 475.734 238.891 472.189L238.582 471.996C222.272 460.679 206.851 447.322 201.204 432.642C195.253 417.168 196.35 406.159 197.354 396.089C198.892 380.651 200.21 367.422 175.577 343.7C141.04 310.442 142.321 301.14 143.502 292.573C143.712 291.044 143.92 289.538 143.92 287.924C143.92 281.894 136.383 281.894 131.86 293.954C127.338 306.013 107.74 360.283 134.875 411.537C140.775 422.681 151.046 426.879 163.447 431.947C170.851 434.972 179.015 438.309 187.461 443.619C188.581 444.323 189.571 445.229 190.42 446.244C204.358 462.926 220.041 476.022 234.67 485.842C234.915 486.014 235.163 486.188 235.413 486.362C238.525 488.615 240.881 490.242 244.698 492.574Z" fill="#F0EBDC"/>
<path d="M149.167 444.701C124.766 433.721 118.139 415.83 112.503 400.615C111.175 397.031 109.902 393.594 108.465 390.432C104.905 381.388 94.8974 385.91 97.9123 397.97C98.1456 398.903 98.379 400.233 98.6682 401.883C100.248 410.892 103.495 429.413 117.51 444.701C128.074 456.226 127.12 466.199 126.168 476.147C125.641 481.666 125.113 487.177 126.554 492.941C132.584 517.061 146.152 524.598 168.764 527.613C184.113 529.66 196.085 526.979 205.773 524.81C213.211 523.145 219.303 521.781 224.541 523.091C236.601 526.106 242.631 523.091 242.631 517.061C242.631 511.031 232.078 501.986 224.541 498.971C217.003 495.956 203.436 488.418 189.869 474.851C186.674 471.656 184.398 469.046 182.393 466.746C175.882 459.278 172.216 455.074 149.167 444.701Z" fill="#F0EBDC"/>
<path fill-rule="evenodd" clip-rule="evenodd" d="M276.02 465.984C273.249 466.147 271.352 468.916 272.642 471.373C280.756 486.829 297.698 497.461 317.284 497.461C336.872 497.461 353.817 486.825 361.93 471.365C363.218 468.91 361.324 466.142 358.555 465.975C348.571 465.372 339.439 463.185 331.922 456.978C324.27 450.658 310.468 450.658 302.816 456.978C295.258 463.218 286.067 465.396 276.02 465.984Z" fill="#F0EBDC"/>
<path d="M167.015 165.643C177.987 166.991 189.156 177.879 169.31 193.8C154.696 208.422 144.814 227.377 142.177 248.855C141.585 253.671 136.385 256.445 132.908 253.061C119.926 240.429 109.375 218.294 111.28 202.776C114.444 177.009 139.172 162.225 167.015 165.643Z" fill="#F0EBDC"/>
<path d="M496.777 248.134C497.122 250.941 500.37 252.285 502.23 250.155C512.706 238.164 522.17 216.768 520.472 202.94C517.308 177.172 492.58 162.388 464.736 165.807C456.832 166.777 446.037 172.494 463.829 187.701C481.621 202.908 493.804 223.918 496.777 248.134Z" fill="#F0EBDC"/>
<path fill-rule="evenodd" clip-rule="evenodd" d="M478.598 263.806C478.598 297.747 458.229 327.092 428.656 341.053C425.561 342.514 421.362 342.007 419.852 338.937C414.964 328.998 410.436 319.957 407.798 315.043C407.369 314.245 406.937 313.447 406.502 312.651C401.254 303.059 404.11 290.6 410.028 281.407C413.373 276.21 415.466 270.761 415.134 266.454C414.237 254.833 396.027 255.924 384.64 256.802C373.252 257.68 364.747 267.813 365.644 279.434C366.108 285.448 368.998 290.682 373.257 294.211C373.382 294.314 373.507 294.417 373.632 294.52C374.458 295.2 375.284 295.88 376 296.673C377.976 298.861 380.153 301.682 382.485 305.101C386.234 310.597 390.069 317.164 393.792 324.098C398.497 332.861 409.769 355.92 417.82 372.657C420.076 379.121 421.311 386.128 421.311 393.449C421.311 425.918 397.014 452.24 367.042 452.24C355.422 452.24 344.655 448.284 335.826 441.547C327.085 434.876 310.516 434.876 301.775 441.547C292.946 448.284 282.179 452.24 270.559 452.24C240.587 452.24 216.289 425.918 216.289 393.449C216.289 385.419 217.775 377.766 220.465 370.794C220.638 370.345 220.794 369.886 220.934 369.419C221.132 368.759 221.355 368.108 221.654 367.487C229.467 351.304 239.31 331.234 243.626 323.195C247.349 316.261 251.184 309.693 254.933 304.197C257.266 300.778 259.443 297.957 261.418 295.769C262.134 294.976 262.96 294.296 263.786 293.617C263.911 293.514 264.036 293.411 264.161 293.308C268.42 289.779 271.311 284.545 271.775 278.531C272.671 266.91 264.166 256.777 252.779 255.898C241.391 255.02 223.181 253.93 222.285 265.551C221.952 269.858 224.045 275.306 227.39 280.503C233.308 289.697 236.164 302.156 230.917 311.748C230.481 312.544 230.049 313.341 229.62 314.14C226.925 319.161 222.255 328.492 217.245 338.686C215.94 341.343 212.366 341.867 209.687 340.607C179.631 326.474 159.012 297.39 159.012 263.805C159.012 216.349 200.182 177.879 250.968 177.879C271.045 177.879 289.619 183.891 304.741 194.094C314.52 200.692 328.28 200.563 337.986 193.859C352.55 183.799 370.388 177.879 389.657 177.879C438.778 177.879 478.598 216.35 478.598 263.806ZM351.048 378.842C358.047 377.071 363.295 370.659 356.913 367.284C347.615 362.369 331.072 361.792 318.8 361.792C306.528 361.792 289.985 362.369 280.688 367.284C274.306 370.659 279.554 377.071 286.552 378.842C301.022 382.504 304.523 392.525 307.407 400.781C309.754 407.498 311.693 413.046 318.8 413.046C325.908 413.046 327.846 407.498 330.193 400.78C333.078 392.525 336.579 382.504 351.048 378.842Z" fill="#F0EBDC"/>
<path d="M95.0849 210.291C94.4676 183.581 109.504 163.425 131.667 150.447C134.309 148.9 134.547 145.067 132.007 143.358L130.164 142.117C129.215 141.477 128.035 141.269 126.935 141.588C104.169 148.195 83.6103 168.356 79.3438 203.726C77.7177 217.206 45.5155 221.729 41.4244 263.938C35.8297 321.662 80.9779 355.5 89.7484 364.932C98.5189 374.365 103.195 371.951 103.195 365.921C103.196 349.865 97.1655 334.79 109.261 297.103C126.529 243.301 96.055 252.274 95.0849 210.291Z" fill="#F0EBDC"/>
<path d="M178.596 147.724C158.731 141.881 126.411 150.192 110.709 167.17C109.776 168.179 108.405 168.767 107.114 168.294C100.134 165.738 94.2392 155.37 124.327 141.694C146.498 131.616 163.522 134.156 178.596 132.649C193.671 131.142 183.119 108.529 228.343 108.529C264.523 108.529 296.683 133.151 303.718 147.724C306.629 153.754 312.159 173.049 291.657 165.814C266.03 156.769 243.418 161.291 217.791 165.814C192.164 170.336 204.224 155.261 178.596 147.724Z" fill="#F0EBDC"/>
<path d="M542.423 210.291C543.04 183.581 528.004 163.425 505.841 150.447C503.199 148.9 502.961 145.067 505.5 143.358L507.344 142.117C508.293 141.477 509.473 141.269 510.572 141.588C533.339 148.195 553.898 168.356 558.164 203.726C559.79 217.206 591.992 221.729 596.083 263.938C601.678 321.662 556.53 355.5 547.759 364.932C538.989 374.365 534.312 371.951 534.312 365.921C534.312 349.865 540.342 334.79 528.247 297.103C510.979 243.301 541.453 252.274 542.423 210.291Z" fill="#F0EBDC"/>
<path d="M458.911 147.724C478.777 141.881 511.097 150.192 526.799 167.17C527.731 168.179 529.103 168.767 530.393 168.294C537.374 165.738 543.269 155.37 513.181 141.694C491.01 131.616 473.986 134.156 458.911 132.649C443.837 131.142 454.389 108.529 409.165 108.529C372.985 108.529 340.825 133.151 333.79 147.724C330.879 153.754 325.349 173.049 345.85 165.814C371.478 156.769 394.09 161.291 419.717 165.814C445.344 170.336 433.284 155.261 458.911 147.724Z" fill="#F0EBDC"/>
<path d="M346.627 57.7237C346.729 59.3315 346.046 60.8461 344.967 62.0426C324.642 84.5845 334.163 123.613 319.578 123.613C304.993 123.613 314.514 84.5845 294.189 62.0426C293.11 60.8461 292.427 59.3315 292.529 57.7237C293.634 40.2406 305.322 0 319.578 0C333.834 0 345.522 40.2406 346.627 57.7237Z" fill="#F0EBDC"/>
<path d="M382.894 94.9699C362.124 102.507 357.025 112.02 350.549 105.544C344.073 99.0683 362.125 73.5088 366.312 67.8354C388.558 37.6856 408.521 57.2831 413.041 75.3729C417.561 93.4626 397.148 89.7972 382.894 94.9699Z" fill="#F0EBDC"/>
<path d="M258.196 94.9699C278.966 102.507 284.065 112.02 290.541 105.544C297.017 99.0683 278.964 73.5088 274.778 67.8354C252.532 37.6856 232.569 57.2831 228.049 75.3729C223.529 93.4626 243.942 89.7972 258.196 94.9699Z" fill="#F0EBDC"/>
</svg>
