<svg width="507" height="270" viewBox="0 0 507 270" fill="none" xmlns="http://www.w3.org/2000/svg">
<path d="M275.748 132.394C272.795 140.073 261.104 146.567 254.253 150.785C253.384 151.32 253.147 152.466 253.713 153.316C254.189 154.029 255.096 154.32 255.884 153.982C262.028 151.341 271.397 145.714 279.048 136.557C279.308 136.246 279.611 135.969 279.954 135.754C286.868 131.407 293.163 131.382 296.046 125.936C304.35 110.252 298.352 93.6443 296.969 89.9538C295.585 86.2633 293.278 86.2633 293.278 88.1085C293.278 91.3705 296.046 93.183 283.591 105.177C271.135 117.171 280.361 120.4 275.748 132.394Z" fill="#005627"/>
<path d="M291.673 136.084C300.899 131.932 301.821 124.551 304.128 119.477C305.217 116.709 308.28 118.093 307.357 121.783C306.896 123.629 306.435 130.548 301.36 136.084C296.334 141.567 299.828 145.903 298.592 150.846C296.747 158.227 292.595 160.534 285.676 161.456C277.372 162.563 272.298 159.15 268.607 160.072C264.917 160.995 263.071 160.072 263.071 158.227C263.071 156.382 266.3 153.614 268.607 152.691C270.914 151.769 275.065 149.462 279.217 145.31C283.369 141.158 282.446 140.236 291.673 136.084Z" fill="#005627"/>
<path d="M250.094 153.39C252.326 151.712 258.858 147.852 264.216 144.496C269.573 141.139 269.29 144.496 269.29 144.496C271.597 144.496 266.061 148.54 260.064 152.23C251.84 157.291 261.909 161.4 259.022 171.349C256.344 180.579 250.094 178.064 246.224 184.983C244.444 188.167 241.611 187.29 241.611 184.983V179.909C241.611 175.714 242.058 166.397 243.843 161.362C245.629 156.327 247.861 155.069 250.094 153.39Z" fill="#005627"/>
<path d="M203.48 132.394C206.433 140.073 218.125 146.567 224.975 150.785C225.845 151.32 226.082 152.466 225.515 153.316C225.039 154.029 224.132 154.32 223.345 153.982C217.201 151.341 207.831 145.714 200.18 136.557C199.92 136.246 199.617 135.969 199.275 135.754C192.361 131.407 186.066 131.382 183.183 125.936C174.879 110.252 180.876 93.6443 182.26 89.9538C183.644 86.2633 185.95 86.2633 185.95 88.1085C185.95 91.3705 183.183 93.183 195.638 105.177C208.093 117.171 198.867 120.4 203.48 132.394Z" fill="#005627"/>
<path d="M187.556 136.084C178.33 131.932 177.407 124.551 175.1 119.477C174.011 116.709 170.949 118.093 171.871 121.783C172.333 123.629 172.794 130.548 177.868 136.084C182.895 141.567 179.4 145.903 180.636 150.846C182.481 158.227 186.633 160.534 193.553 161.456C201.857 162.563 206.931 159.15 210.621 160.072C214.312 160.995 216.157 160.072 216.157 158.227C216.157 156.382 212.928 153.614 210.621 152.691C208.315 151.769 204.163 149.462 200.011 145.31C195.86 141.158 196.782 140.236 187.556 136.084Z" fill="#005627"/>
<path d="M229.135 153.39C226.903 151.712 220.37 147.852 215.013 144.496C209.656 141.139 209.938 144.496 209.938 144.496C207.632 144.496 213.168 148.54 219.165 152.23C227.389 157.291 217.319 161.4 220.206 171.349C222.885 180.579 229.135 178.064 233.004 184.983C234.784 188.167 237.617 187.29 237.617 184.983V179.909C237.617 175.714 237.171 166.397 235.385 161.362C233.599 156.327 231.367 155.069 229.135 153.39Z" fill="#005627"/>
<path fill-rule="evenodd" clip-rule="evenodd" d="M230.586 142.008C227.907 142.735 226.034 145.444 227.947 147.455C230.735 150.386 234.789 152.23 239.302 152.23C243.818 152.23 247.874 150.383 250.662 147.449C252.573 145.439 250.701 142.731 248.027 141.996C246.487 141.572 245.059 140.897 243.783 139.843C241.441 137.909 237.218 137.909 234.876 139.843C233.587 140.907 232.144 141.585 230.586 142.008Z" fill="#9D1E1E"/>
<path d="M193.318 50.6892C196.675 51.1015 200.093 54.4334 194.02 59.3056C189.548 63.78 186.524 69.5807 185.717 76.1532C185.536 77.627 183.944 78.476 182.88 77.4404C178.907 73.5746 175.679 66.8011 176.262 62.0525C177.23 54.1673 184.797 49.643 193.318 50.6892Z" fill="#9D1E1E"/>
<path d="M294.23 75.9328C294.336 76.7917 295.33 77.203 295.899 76.5513C299.105 72.8819 302.001 66.3345 301.481 62.1027C300.513 54.2175 292.946 49.6933 284.425 50.7395C282.006 51.0365 278.703 52.786 284.148 57.4396C289.592 62.0931 293.321 68.5223 294.23 75.9328Z" fill="#9D1E1E"/>
<path fill-rule="evenodd" clip-rule="evenodd" d="M288.666 80.7285C288.666 91.115 282.433 100.095 273.383 104.367C272.436 104.814 271.151 104.659 270.689 103.72C269.194 100.678 267.808 97.9115 267 96.408C266.869 96.1636 266.737 95.9195 266.604 95.676C264.998 92.7407 265.872 88.928 267.683 86.1146C268.707 84.5243 269.347 82.857 269.245 81.539C268.971 77.9827 263.398 78.3165 259.914 78.5852C256.429 78.854 253.826 81.9548 254.101 85.5111C254.243 87.3514 255.127 88.953 256.43 90.033C256.469 90.0646 256.507 90.0961 256.545 90.1277C256.798 90.3356 257.051 90.5436 257.27 90.7863C257.874 91.4558 258.541 92.3191 259.254 93.3654C260.402 95.0473 261.575 97.0571 262.715 99.1789C264.154 101.86 267.604 108.917 270.067 114.039C270.758 116.017 271.136 118.161 271.136 120.401C271.136 130.337 263.7 138.392 254.528 138.392C250.973 138.392 247.678 137.182 244.976 135.12C242.301 133.079 237.231 133.079 234.556 135.12C231.854 137.182 228.559 138.392 225.003 138.392C215.831 138.392 208.396 130.337 208.396 120.401C208.396 117.944 208.851 115.602 209.674 113.469C209.727 113.331 209.775 113.191 209.817 113.048C209.878 112.846 209.946 112.647 210.038 112.457C212.428 107.504 215.441 101.362 216.761 98.9024C217.901 96.7806 219.074 94.7708 220.222 93.089C220.935 92.0426 221.602 91.1793 222.206 90.5098C222.425 90.2672 222.678 90.0591 222.931 89.8512L222.931 89.8512C222.969 89.8197 223.007 89.7881 223.045 89.7565C224.349 88.6766 225.233 87.0749 225.375 85.2346C225.65 81.6783 223.047 78.5775 219.562 78.3088C216.078 78.04 210.505 77.7062 210.231 81.2625C210.129 82.5805 210.769 84.2478 211.793 85.8382C213.604 88.6516 214.478 92.4642 212.872 95.3995C212.739 95.643 212.607 95.8871 212.475 96.1315C211.651 97.6679 210.222 100.523 208.689 103.643C208.289 104.456 207.195 104.617 206.375 104.231C197.178 99.906 190.868 91.0057 190.868 80.7284C190.868 66.2062 203.467 54.4336 219.008 54.4336C225.152 54.4336 230.836 56.2734 235.463 59.3955C238.456 61.4146 242.667 61.3754 245.637 59.3237C250.094 56.2453 255.552 54.4338 261.449 54.4338C276.481 54.4338 288.666 66.2063 288.666 80.7285ZM249.634 115.931C251.776 115.389 253.382 113.427 251.429 112.394C248.584 110.89 243.521 110.714 239.766 110.714C236.01 110.714 230.948 110.89 228.103 112.394C226.15 113.427 227.756 115.389 229.898 115.931C234.325 117.052 235.397 120.119 236.279 122.645C236.998 124.701 237.591 126.398 239.766 126.398C241.941 126.398 242.534 124.701 243.252 122.645C244.135 120.119 245.206 117.052 249.634 115.931Z" fill="#9D1E1E"/>
<path d="M171.305 64.3516C171.121 56.3649 175.51 50.293 182.038 46.3143C183.043 45.7015 183.134 44.2257 182.158 43.5682C181.792 43.3222 181.338 43.2413 180.916 43.3672C174.004 45.4296 167.786 51.5892 166.488 62.3426C165.991 66.4677 156.136 67.8516 154.885 80.7684C153.172 98.4326 166.988 108.788 169.672 111.674C172.356 114.561 173.787 113.822 173.787 111.977C173.787 107.063 171.942 102.45 175.644 90.9172C180.928 74.4529 171.602 77.1988 171.305 64.3516Z" fill="#005627"/>
<path d="M196.863 45.205C191.216 43.544 182.279 45.6207 177.186 50.0893C176.154 50.9955 174.613 51.7042 173.736 50.6464C172.593 49.2665 173.082 46.6204 180.256 43.3598C187.04 40.2758 192.25 41.0532 196.863 40.5919C201.476 40.1306 198.247 33.2109 212.086 33.2109C223.158 33.2109 232.999 40.7456 235.152 45.205C236.043 47.0503 237.735 52.9551 231.461 50.7408C223.619 47.9729 216.699 49.3569 208.857 50.7408C201.015 52.1247 204.705 47.5115 196.863 45.205Z" fill="#005627"/>
<path d="M308.198 64.3516C308.383 56.3649 303.994 50.293 297.466 46.3143C296.46 45.7015 296.369 44.2257 297.346 43.5682C297.712 43.3222 298.166 43.2413 298.588 43.3672C305.5 45.4296 311.718 51.5892 313.016 62.3426C313.513 66.4677 323.367 67.8516 324.619 80.7684C326.331 98.4326 312.515 108.788 309.832 111.674C307.148 114.561 305.717 113.822 305.717 111.977C305.716 107.063 307.562 102.45 303.86 90.9172C298.576 74.4529 307.902 77.1988 308.198 64.3516Z" fill="#005627"/>
<path d="M282.641 45.205C288.288 43.544 297.224 45.6207 302.318 50.0893C303.35 50.9955 304.891 51.7042 305.768 50.6464C306.911 49.2665 306.421 46.6204 299.248 43.3598C292.464 40.2758 287.254 41.0532 282.641 40.5919C278.028 40.1306 281.257 33.2109 267.418 33.2109C256.346 33.2109 246.505 40.7456 244.352 45.205C243.461 47.0503 241.769 52.9551 248.043 50.7408C255.885 47.9729 262.805 49.3569 270.647 50.7408C278.489 52.1247 274.799 47.5115 282.641 45.205Z" fill="#005627"/>
<path d="M248.092 15.9256C248.323 17.52 247.604 19.0302 246.692 20.3587C241.893 27.3547 244.182 37.8276 240.003 37.8276C235.823 37.8276 238.112 27.3547 233.313 20.3587C232.402 19.0302 231.682 17.52 231.913 15.9256C232.766 10.0379 236.064 0 240.003 0C243.942 0 247.24 10.0379 248.092 15.9256Z" fill="#AE7E00"/>
<path d="M259.379 29.0622C253.023 31.3688 251.463 34.2798 249.481 32.2981C247.5 30.3164 253.024 22.4948 254.305 20.7586C261.113 11.5323 267.222 17.5295 268.605 23.0652C269.988 28.6009 263.741 27.4793 259.379 29.0622Z" fill="#AE7E00"/>
<path d="M221.219 29.0622C227.575 31.3688 229.136 34.2798 231.117 32.2981C233.099 30.3164 227.575 22.4948 226.294 20.7586C219.486 11.5323 213.377 17.5295 211.994 23.0652C210.611 28.6009 216.857 27.4793 221.219 29.0622Z" fill="#AE7E00"/>
<path d="M50 216.9C50 218.005 49.1046 218.9 48 218.9H43.5C42.3954 218.9 41.5 218.005 41.5 216.9V206.1C41.5 204.995 42.3954 204.1 43.5 204.1H92.4C93.5046 204.1 94.4 204.995 94.4 206.1V216.9C94.4 218.005 93.5046 218.9 92.4 218.9H87.9C86.7954 218.9 85.9 218.005 85.9 216.9V214.6C85.9 213.495 85.0046 212.6 83.9 212.6H75.3C74.1954 212.6 73.3 213.495 73.3 214.6V257.5C73.3 258.605 74.1954 259.5 75.3 259.5H77.6C78.7046 259.5 79.6 260.395 79.6 261.5V266C79.6 267.105 78.7046 268 77.6 268H58.3C57.1954 268 56.3 267.105 56.3 266V261.5C56.3 260.395 57.1954 259.5 58.3 259.5H60.6C61.7046 259.5 62.6 258.605 62.6 257.5V214.6C62.6 213.495 61.7046 212.6 60.6 212.6H52C50.8954 212.6 50 213.495 50 214.6V216.9Z" fill="#005627"/>
<path d="M124.623 264.121C123.864 262.888 122.075 262.842 121.07 263.884C119.857 265.143 118.47 266.215 116.91 267.1C114.443 268.433 111.543 269.1 108.21 269.1C105.143 269.1 102.243 268.533 99.5102 267.4C96.8435 266.2 94.4768 264.6 92.4102 262.6C90.4102 260.533 88.8102 258.167 87.6102 255.5C86.4768 252.767 85.9102 249.867 85.9102 246.8C85.9102 243.733 86.4768 240.867 87.6102 238.2C88.8102 235.467 90.4102 233.1 92.4102 231.1C94.4768 229.1 96.8435 227.533 99.5102 226.4C102.243 225.2 105.143 224.6 108.21 224.6C111.543 224.6 114.41 225.267 116.81 226.6C118.371 227.444 119.758 228.474 120.972 229.691C121.983 230.705 123.747 230.653 124.503 229.437L126.423 226.345C126.788 225.757 127.431 225.4 128.122 225.4H136.71C137.815 225.4 138.71 226.295 138.71 227.4V231.9C138.71 233.005 137.815 233.9 136.71 233.9H134.31C133.206 233.9 132.31 234.795 132.31 235.9V257.5C132.31 258.605 133.206 259.5 134.31 259.5H136.71C137.815 259.5 138.71 260.395 138.71 261.5V266C138.71 267.105 137.815 268 136.71 268H128.128C127.433 268 126.788 267.64 126.424 267.048L124.623 264.121ZM96.1102 246.8C96.1102 248.667 96.4435 250.433 97.1102 252.1C97.8435 253.7 98.8102 255.133 100.01 256.4C101.277 257.6 102.71 258.567 104.31 259.3C105.977 259.967 107.743 260.3 109.61 260.3C113.343 260.3 116.277 259 118.41 256.4C120.61 253.8 121.71 250.6 121.71 246.8C121.71 243.067 120.61 239.9 118.41 237.3C116.277 234.633 113.343 233.3 109.61 233.3C107.743 233.3 105.977 233.667 104.31 234.4C102.71 235.067 101.277 236.033 100.01 237.3C98.8102 238.5 97.8435 239.933 97.1102 241.6C96.4435 243.2 96.1102 244.933 96.1102 246.8Z" fill="#005627"/>
<path d="M192.176 257.2C192.176 258.305 193.071 259.2 194.176 259.2H196.476C197.58 259.2 198.476 260.095 198.476 261.2V265.7C198.476 266.805 197.58 267.7 196.476 267.7H187.98C187.293 267.7 186.654 267.347 186.287 266.766L183.737 262.715C182.892 261.373 180.867 261.498 179.94 262.784C178.573 264.68 176.951 266.052 175.076 266.9C172.342 268.1 169.676 268.7 167.076 268.7C165.809 268.7 164.176 268.467 162.176 268C160.242 267.533 158.376 266.533 156.576 265C154.776 263.4 153.209 261.133 151.876 258.2C150.609 255.267 149.976 251.333 149.976 246.4V235.6C149.976 234.495 149.08 233.6 147.976 233.6H145.676C144.571 233.6 143.676 232.705 143.676 231.6V227.1C143.676 225.995 144.571 225.1 145.676 225.1H158.676C159.78 225.1 160.676 225.995 160.676 227.1V246.9C160.676 251.033 161.442 254.2 162.976 256.4C164.509 258.6 167.142 259.7 170.876 259.7C174.209 259.7 176.809 258.467 178.676 256C180.542 253.533 181.476 250.333 181.476 246.4V235.6C181.476 234.495 180.58 233.6 179.476 233.6H177.176C176.071 233.6 175.176 232.705 175.176 231.6V227.1C175.176 225.995 176.071 225.1 177.176 225.1H190.176C191.28 225.1 192.176 225.995 192.176 227.1V257.2Z" fill="#005627"/>
<path d="M223.28 268C222.176 268 221.28 267.105 221.28 266V261.5C221.28 260.395 222.176 259.5 223.28 259.5H225.58C226.685 259.5 227.58 258.605 227.58 257.5V214.6C227.58 213.495 226.685 212.6 225.58 212.6H223.28C222.176 212.6 221.28 211.705 221.28 210.6V206.1C221.28 204.995 222.176 204.1 223.28 204.1H264.48C265.585 204.1 266.48 204.995 266.48 206.1V216.9C266.48 218.005 265.585 218.9 264.48 218.9H259.98C258.876 218.9 257.98 218.005 257.98 216.9V214.6C257.98 213.495 257.085 212.6 255.98 212.6H240.28C239.176 212.6 238.28 213.495 238.28 214.6V229.8C238.28 230.905 239.176 231.8 240.28 231.8H253.08C254.185 231.8 255.08 232.695 255.08 233.8V238.3C255.08 239.405 254.185 240.3 253.08 240.3H240.28C239.176 240.3 238.28 241.195 238.28 242.3V257.5C238.28 258.605 239.176 259.5 240.28 259.5H242.58C243.685 259.5 244.58 260.395 244.58 261.5V266C244.58 267.105 243.685 268 242.58 268H223.28Z" fill="#005627"/>
<path d="M304.441 246.5C304.441 249.567 303.841 252.467 302.641 255.2C301.507 257.867 299.907 260.233 297.841 262.3C295.841 264.3 293.474 265.9 290.741 267.1C288.074 268.233 285.207 268.8 282.141 268.8C279.074 268.8 276.174 268.233 273.441 267.1C270.774 265.9 268.441 264.3 266.441 262.3C264.441 260.233 262.841 257.867 261.641 255.2C260.507 252.467 259.941 249.567 259.941 246.5C259.941 243.433 260.507 240.567 261.641 237.9C262.841 235.167 264.441 232.8 266.441 230.8C268.441 228.733 270.774 227.133 273.441 226C276.174 224.8 279.074 224.2 282.141 224.2C285.207 224.2 288.074 224.8 290.741 226C293.474 227.133 295.841 228.733 297.841 230.8C299.907 232.8 301.507 235.167 302.641 237.9C303.841 240.567 304.441 243.433 304.441 246.5ZM270.141 246.5C270.141 250.3 271.207 253.5 273.341 256.1C275.474 258.7 278.407 260 282.141 260C285.941 260 288.941 258.7 291.141 256.1C293.407 253.5 294.541 250.3 294.541 246.5C294.541 242.7 293.407 239.5 291.141 236.9C288.941 234.3 285.941 233 282.141 233C278.407 233 275.474 234.3 273.341 236.9C271.207 239.5 270.141 242.7 270.141 246.5Z" fill="#005627"/>
<path d="M352.929 246.5C352.929 249.567 352.329 252.467 351.129 255.2C349.996 257.867 348.396 260.233 346.329 262.3C344.329 264.3 341.962 265.9 339.229 267.1C336.562 268.233 333.696 268.8 330.629 268.8C327.562 268.8 324.662 268.233 321.929 267.1C319.262 265.9 316.929 264.3 314.929 262.3C312.929 260.233 311.329 257.867 310.129 255.2C308.996 252.467 308.429 249.567 308.429 246.5C308.429 243.433 308.996 240.567 310.129 237.9C311.329 235.167 312.929 232.8 314.929 230.8C316.929 228.733 319.262 227.133 321.929 226C324.662 224.8 327.562 224.2 330.629 224.2C333.696 224.2 336.562 224.8 339.229 226C341.962 227.133 344.329 228.733 346.329 230.8C348.396 232.8 349.996 235.167 351.129 237.9C352.329 240.567 352.929 243.433 352.929 246.5ZM318.629 246.5C318.629 250.3 319.696 253.5 321.829 256.1C323.962 258.7 326.896 260 330.629 260C334.429 260 337.429 258.7 339.629 256.1C341.896 253.5 343.029 250.3 343.029 246.5C343.029 242.7 341.896 239.5 339.629 236.9C337.429 234.3 334.429 233 330.629 233C326.896 233 323.962 234.3 321.829 236.9C319.696 239.5 318.629 242.7 318.629 246.5Z" fill="#005627"/>
<path d="M401.417 204C402.522 204 403.417 204.895 403.417 206V257.4C403.417 258.505 404.313 259.4 405.417 259.4H407.717C408.822 259.4 409.717 260.295 409.717 261.4V265.9C409.717 267.005 408.822 267.9 407.717 267.9H399.135C398.44 267.9 397.795 267.54 397.431 266.948L395.63 264.021C394.871 262.788 393.082 262.742 392.077 263.784C390.864 265.043 389.477 266.115 387.917 267C385.451 268.333 382.55 269 379.217 269C376.15 269 373.251 268.433 370.517 267.3C367.851 266.1 365.484 264.5 363.417 262.5C361.417 260.433 359.817 258.067 358.617 255.4C357.484 252.667 356.917 249.767 356.917 246.7C356.917 243.633 357.484 240.767 358.617 238.1C359.817 235.367 361.417 233 363.417 231C365.484 229 367.851 227.433 370.517 226.3C373.251 225.1 376.15 224.5 379.217 224.5C382.15 224.5 384.717 225.033 386.917 226.1C387.496 226.355 388.052 226.639 388.587 226.95C390.192 227.885 392.717 226.85 392.717 224.993V214.5C392.717 213.395 391.822 212.5 390.717 212.5H388.417C387.313 212.5 386.417 211.605 386.417 210.5V206C386.417 204.895 387.313 204 388.417 204H401.417ZM380.617 260.2C384.351 260.2 387.284 258.9 389.417 256.3C391.617 253.7 392.717 250.5 392.717 246.7C392.717 242.967 391.617 239.8 389.417 237.2C387.284 234.533 384.351 233.2 380.617 233.2C378.751 233.2 376.984 233.567 375.317 234.3C373.717 234.967 372.284 235.933 371.017 237.2C369.817 238.4 368.851 239.833 368.117 241.5C367.451 243.1 367.117 244.833 367.117 246.7C367.117 248.567 367.451 250.333 368.117 252C368.851 253.6 369.817 255.033 371.017 256.3C372.284 257.5 373.717 258.467 375.317 259.2C376.984 259.867 378.751 260.2 380.617 260.2Z" fill="#005627"/>
<path d="M425.683 236C425.683 237.133 426.283 238.033 427.483 238.7C428.749 239.367 430.316 240 432.183 240.6C434.049 241.133 436.049 241.7 438.183 242.3C440.383 242.9 442.416 243.7 444.283 244.7C446.149 245.7 447.683 247.033 448.883 248.7C450.149 250.3 450.783 252.367 450.783 254.9C450.783 256.367 450.483 257.933 449.883 259.6C449.349 261.2 448.383 262.7 446.983 264.1C445.649 265.433 443.783 266.567 441.383 267.5C439.049 268.367 436.083 268.8 432.483 268.8C429.016 268.8 426.149 268.433 423.883 267.7C421.683 266.9 419.916 266.033 418.583 265.1C417.249 264.1 416.316 263.167 415.783 262.3C415.503 261.845 415.278 261.482 415.108 261.211C414.899 260.876 414.783 260.489 414.783 260.094V255.1C414.783 253.995 415.678 253.1 416.783 253.1H423.383C424.487 253.1 425.383 253.995 425.383 255.1V256C425.383 257.467 426.149 258.567 427.683 259.3C429.216 260.033 430.883 260.4 432.683 260.4C434.549 260.4 436.249 260.033 437.783 259.3C439.316 258.567 440.083 257.467 440.083 256C440.083 254.8 439.449 253.833 438.183 253.1C436.983 252.367 435.416 251.7 433.483 251.1C431.616 250.5 429.583 249.9 427.383 249.3C425.249 248.633 423.216 247.767 421.283 246.7C419.416 245.633 417.849 244.267 416.583 242.6C415.383 240.933 414.783 238.767 414.783 236.1C414.783 234.5 415.083 232.933 415.683 231.4C416.349 229.867 417.349 228.5 418.683 227.3C420.083 226.033 421.849 225.033 423.983 224.3C426.116 223.5 428.649 223.1 431.583 223.1C434.449 223.1 436.849 223.367 438.783 223.9C440.783 224.433 442.383 225.033 443.583 225.7C444.783 226.367 445.649 227 446.183 227.6C446.265 227.673 446.341 227.741 446.412 227.804C446.839 228.183 447.083 228.727 447.083 229.298V235.3C447.083 236.405 446.187 237.3 445.083 237.3H439.883C439.165 237.3 438.583 236.718 438.583 236C438.583 234.667 437.916 233.6 436.583 232.8C435.249 232 433.749 231.567 432.083 231.5C430.483 231.367 429.016 231.667 427.683 232.4C426.349 233.067 425.683 234.267 425.683 236Z" fill="#005627"/>
<path d="M17.3621 237.204C18.958 236.983 20.4705 237.7 21.7869 238.629C29.3282 243.95 40.7804 241.415 40.7804 245.952C40.7804 250.49 29.3282 247.955 21.7869 253.276C20.4705 254.205 18.958 254.922 17.3621 254.701C11.044 253.827 1.87509e-07 250.242 0 245.953C-1.87505e-07 241.663 11.044 238.078 17.3621 237.204Z" fill="#AE7E00"/>
<path d="M489.418 253.7C487.822 253.921 486.31 253.204 484.993 252.276C477.452 246.954 466 249.49 466 244.952C466 240.414 477.452 242.949 484.993 237.628C486.31 236.699 487.822 235.983 489.418 236.203C495.736 237.077 506.78 240.662 506.78 244.952C506.78 249.241 495.736 252.826 489.418 253.7Z" fill="#AE7E00"/>
</svg>
