<svg width="1021" height="132" viewBox="0 0 1021 132" fill="none" xmlns="http://www.w3.org/2000/svg">
<path d="M100.692 28.006C100.692 29.1106 99.7963 30.006 98.6917 30.006H85.5742C84.4697 30.006 83.5742 29.1106 83.5742 28.006V2.20138C83.5742 1.09681 84.4696 0.20138 85.5742 0.20138H188.106C189.21 0.20138 190.106 1.09681 190.106 2.20138V28.006C190.106 29.1106 189.21 30.006 188.106 30.006H174.988C173.883 30.006 172.988 29.1106 172.988 28.006V19.3189C172.988 18.2143 172.093 17.3189 170.988 17.3189H149.614C148.509 17.3189 147.614 18.2143 147.614 19.3189V109.767C147.614 110.872 148.509 111.767 149.614 111.767H158.301C159.406 111.767 160.301 112.663 160.301 113.767V126.885C160.301 127.989 159.406 128.885 158.301 128.885H115.379C114.274 128.885 113.379 127.989 113.379 126.885V113.767C113.379 112.663 114.274 111.767 115.379 111.767H124.066C125.17 111.767 126.066 110.872 126.066 109.767V19.3189C126.066 18.2143 125.17 17.3189 124.066 17.3189H102.692C101.587 17.3189 100.692 18.2143 100.692 19.3189V28.006Z" fill="#F0EADC"/>
<path d="M249.334 118.415C248.576 117.183 246.793 117.137 245.881 118.26C242.984 121.827 239.503 124.765 235.437 127.072C230.47 129.757 224.63 131.1 217.917 131.1C211.741 131.1 205.901 129.959 200.397 127.676C195.026 125.26 190.26 122.038 186.098 118.01C182.071 113.848 178.849 109.082 176.432 103.712C174.15 98.2075 173.008 92.3674 173.008 86.1917C173.008 80.016 174.15 74.243 176.432 68.8728C178.849 63.3684 182.071 58.6023 186.098 54.5747C190.26 50.547 195.026 47.392 200.397 45.1097C205.901 42.6931 211.741 41.4848 217.917 41.4848C224.63 41.4848 230.403 42.8273 235.236 45.5124C239.302 47.7105 242.784 50.5382 245.68 53.9957C246.6 55.0933 248.357 55.0399 249.112 53.8236L255.19 44.0405C255.555 43.4531 256.197 43.0959 256.889 43.0959H277.338C278.443 43.0959 279.338 43.9913 279.338 45.0959V58.2134C279.338 59.3179 278.443 60.2134 277.338 60.2134H268.45C267.345 60.2134 266.45 61.1088 266.45 62.2134V109.767C266.45 110.872 267.345 111.767 268.45 111.767H277.338C278.443 111.767 279.338 112.663 279.338 113.767V126.885C279.338 127.989 278.443 128.885 277.338 128.885H256.894C256.2 128.885 255.555 128.524 255.191 127.933L249.334 118.415ZM193.55 86.1917C193.55 89.9508 194.221 93.5086 195.563 96.865C197.04 100.087 198.987 102.974 201.403 105.524C203.954 107.941 206.841 109.888 210.063 111.365C213.419 112.707 216.977 113.378 220.736 113.378C228.254 113.378 234.162 110.76 238.458 105.524C242.888 100.288 245.103 93.8442 245.103 86.1917C245.103 78.6734 242.888 72.2963 238.458 67.0604C234.162 61.6902 228.254 59.0051 220.736 59.0051C216.977 59.0051 213.419 59.7435 210.063 61.2203C206.841 62.5628 203.954 64.5095 201.403 67.0604C198.987 69.477 197.04 72.3634 195.563 75.7198C194.221 78.9419 193.55 82.4326 193.55 86.1917Z" fill="#F0EADC"/>
<path d="M387.009 109.163C387.009 110.268 387.904 111.163 389.009 111.163H397.696C398.801 111.163 399.696 112.059 399.696 113.163V126.281C399.696 127.385 398.801 128.281 397.696 128.281H377.44C376.753 128.281 376.113 127.928 375.747 127.346L368.026 115.083C367.181 113.741 365.169 113.864 364.382 115.241C361.253 120.714 357.317 124.523 352.572 126.67C347.068 129.086 341.698 130.294 336.462 130.294C333.911 130.294 330.622 129.825 326.594 128.885C322.701 127.945 318.942 125.931 315.317 122.843C311.692 119.621 308.537 115.057 305.852 109.149C303.301 103.242 302.025 95.321 302.025 85.3862V61.6092C302.025 60.5046 301.13 59.6092 300.025 59.6092H291.338C290.234 59.6092 289.338 58.7138 289.338 57.6092V44.4917C289.338 43.3871 290.234 42.4917 291.338 42.4917H321.573C322.678 42.4917 323.573 43.3871 323.573 44.4917V86.3931C323.573 94.7169 325.117 101.094 328.205 105.524C331.293 109.955 336.596 112.17 344.114 112.17C350.827 112.17 356.063 109.686 359.822 104.719C363.581 99.7515 365.461 93.3072 365.461 85.3862V61.6092C365.461 60.5046 364.566 59.6092 363.461 59.6092H354.774C353.669 59.6092 352.774 58.7138 352.774 57.6092V44.4917C352.774 43.3871 353.669 42.4917 354.774 42.4917H385.009C386.113 42.4917 387.009 43.3871 387.009 44.4917V109.163Z" fill="#F0EADC"/>
<path d="M447.621 128.885C446.516 128.885 445.621 127.989 445.621 126.885V113.767C445.621 112.663 446.516 111.767 447.621 111.767H456.308C457.412 111.767 458.308 110.872 458.308 109.767V19.3189C458.308 18.2143 457.412 17.3189 456.308 17.3189H447.621C446.516 17.3189 445.621 16.4235 445.621 15.3189V2.20138C445.621 1.09681 446.516 0.20138 447.621 0.20138H534.645C535.75 0.20138 536.645 1.09681 536.645 2.20138V28.006C536.645 29.1106 535.75 30.006 534.645 30.006H521.528C520.423 30.006 519.528 29.1106 519.528 28.006V19.3189C519.528 18.2143 518.633 17.3189 517.528 17.3189H481.856C480.751 17.3189 479.856 18.2143 479.856 19.3189V53.9843C479.856 55.0889 480.751 55.9843 481.856 55.9843H511.688C512.792 55.9843 513.688 56.8798 513.688 57.9843V71.1018C513.688 72.2064 512.792 73.1018 511.688 73.1018H481.856C480.751 73.1018 479.856 73.9973 479.856 75.1018V109.767C479.856 110.872 480.751 111.767 481.856 111.767H490.543C491.647 111.767 492.543 112.663 492.543 113.767V126.885C492.543 127.989 491.647 128.885 490.543 128.885H447.621Z" fill="#F0EADC"/>
<path d="M613.091 85.5876C613.091 91.7633 611.882 97.6034 609.466 103.108C607.183 108.478 603.961 113.244 599.799 117.406C595.772 121.434 591.006 124.656 585.501 127.072C580.131 129.355 574.358 130.496 568.182 130.496C562.007 130.496 556.166 129.355 550.662 127.072C545.292 124.656 540.593 121.434 536.565 117.406C532.538 113.244 529.315 108.478 526.899 103.108C524.617 97.6034 523.475 91.7633 523.475 85.5876C523.475 79.4118 524.617 73.6389 526.899 68.2687C529.315 62.7642 532.538 57.9982 536.565 53.9705C540.593 49.8086 545.292 46.5865 550.662 44.3042C556.166 41.8876 562.007 40.6793 568.182 40.6793C574.358 40.6793 580.131 41.8876 585.501 44.3042C591.006 46.5865 595.772 49.8086 599.799 53.9705C603.961 57.9982 607.183 62.7642 609.466 68.2687C611.882 73.6389 613.091 79.4118 613.091 85.5876ZM544.016 85.5876C544.016 93.2401 546.164 99.6843 550.461 104.92C554.757 110.156 560.664 112.774 568.182 112.774C575.835 112.774 581.876 110.156 586.307 104.92C590.871 99.6843 593.154 93.2401 593.154 85.5876C593.154 77.935 590.871 71.4908 586.307 66.2548C581.876 61.0189 575.835 58.4009 568.182 58.4009C560.664 58.4009 554.757 61.0189 550.461 66.2548C546.164 71.4908 544.016 77.935 544.016 85.5876Z" fill="#F0EADC"/>
<path d="M710.737 85.5876C710.737 91.7633 709.529 97.6034 707.113 103.108C704.83 108.478 701.608 113.244 697.446 117.406C693.419 121.434 688.653 124.656 683.148 127.072C677.778 129.355 672.005 130.496 665.829 130.496C659.653 130.496 653.813 129.355 648.309 127.072C642.939 124.656 638.24 121.434 634.212 117.406C630.184 113.244 626.962 108.478 624.546 103.108C622.263 97.6034 621.122 91.7633 621.122 85.5876C621.122 79.4118 622.263 73.6389 624.546 68.2687C626.962 62.7642 630.184 57.9982 634.212 53.9705C638.24 49.8086 642.939 46.5865 648.309 44.3042C653.813 41.8876 659.653 40.6793 665.829 40.6793C672.005 40.6793 677.778 41.8876 683.148 44.3042C688.653 46.5865 693.419 49.8086 697.446 53.9705C701.608 57.9982 704.83 62.7642 707.113 68.2687C709.529 73.6389 710.737 79.4118 710.737 85.5876ZM641.663 85.5876C641.663 93.2401 643.811 99.6843 648.108 104.92C652.404 110.156 658.311 112.774 665.829 112.774C673.482 112.774 679.523 110.156 683.954 104.92C688.518 99.6843 690.801 93.2401 690.801 85.5876C690.801 77.935 688.518 71.4908 683.954 66.2548C679.523 61.0189 673.482 58.4009 665.829 58.4009C658.311 58.4009 652.404 61.0189 648.108 66.2548C643.811 71.4908 641.663 77.935 641.663 85.5876Z" fill="#F0EADC"/>
<path d="M810.412 0C811.517 0 812.412 0.89543 812.412 2V109.566C812.412 110.67 813.307 111.566 814.412 111.566H823.099C824.204 111.566 825.099 112.461 825.099 113.566V126.683C825.099 127.788 824.204 128.683 823.099 128.683H802.655C801.96 128.683 801.316 128.323 800.952 127.732L795.095 118.214C794.336 116.982 792.554 116.935 791.642 118.059C788.745 121.626 785.264 124.563 781.198 126.871C776.23 129.556 770.39 130.899 763.677 130.899C757.502 130.899 751.662 129.757 746.157 127.475C740.787 125.059 736.021 121.836 731.859 117.809C727.831 113.647 724.609 108.881 722.193 103.511C719.91 98.0061 718.769 92.1661 718.769 85.9903C718.769 79.8146 719.91 74.0416 722.193 68.6714C724.609 63.167 727.831 58.4009 731.859 54.3733C736.021 50.3456 740.787 47.1906 746.157 44.9083C751.662 42.4917 757.502 41.2834 763.677 41.2834C769.585 41.2834 774.754 42.3575 779.184 44.5055C782.066 45.7771 784.681 47.3966 787.028 49.364C788.451 50.5569 790.864 49.6153 790.864 47.7585V19.1175C790.864 18.0129 789.969 17.1175 788.864 17.1175H780.177C779.072 17.1175 778.177 16.2221 778.177 15.1175V2C778.177 0.895432 779.072 0 780.177 0H810.412ZM766.497 113.177C774.015 113.177 779.922 110.559 784.219 105.323C788.649 100.087 790.864 93.6429 790.864 85.9903C790.864 78.472 788.649 72.0949 784.219 66.859C779.922 61.4888 774.015 58.8037 766.497 58.8037C762.738 58.8037 759.18 59.5421 755.824 61.0189C752.601 62.3614 749.715 64.3081 747.164 66.859C744.748 69.2756 742.801 72.1621 741.324 75.5184C739.982 78.7406 739.31 82.2312 739.31 85.9903C739.31 89.7495 739.982 93.3072 741.324 96.6636C742.801 99.8857 744.748 102.772 747.164 105.323C749.715 107.74 752.601 109.686 755.824 111.163C759.18 112.506 762.738 113.177 766.497 113.177Z" fill="#F0EADC"/>
<path d="M857.251 64.4424C857.251 66.7247 858.459 68.5372 860.876 69.8797C863.427 71.2223 866.582 72.4977 870.341 73.706C874.1 74.78 878.128 75.9212 882.424 77.1295C886.854 78.3378 890.949 79.9488 894.708 81.9627C898.467 83.9765 901.555 86.6616 903.972 90.018C906.523 93.2401 907.798 97.402 907.798 102.504C907.798 105.457 907.194 108.612 905.986 111.969C904.912 115.191 902.965 118.212 900.146 121.031C897.46 123.716 893.701 125.998 888.868 127.878C884.169 129.623 878.195 130.496 870.945 130.496C863.964 130.496 858.191 129.757 853.626 128.281C849.196 126.67 845.638 124.924 842.953 123.045C840.268 121.031 838.388 119.151 837.314 117.406C836.547 116.159 835.985 115.254 835.629 114.692C835.417 114.359 835.3 113.973 835.3 113.578V100.879C835.3 99.7742 836.196 98.8788 837.3 98.8788H854.647C855.752 98.8788 856.647 99.7742 856.647 100.879V104.719C856.647 107.673 858.191 109.888 861.279 111.365C864.367 112.841 867.723 113.58 871.348 113.58C875.107 113.58 878.531 112.841 881.618 111.365C884.706 109.888 886.25 107.673 886.25 104.719C886.25 102.302 884.975 100.356 882.424 98.8788C880.007 97.402 876.852 96.0594 872.959 94.8511C869.2 93.6429 865.105 92.4346 860.675 91.2263C856.378 89.8837 852.284 88.1384 848.39 85.9903C844.631 83.8422 841.476 81.09 838.925 77.7336C836.509 74.3773 835.3 70.014 835.3 64.6438C835.3 61.4217 835.905 58.2667 837.113 55.1788C838.455 52.0909 840.469 49.3387 843.154 46.9221C845.974 44.3713 849.531 42.3574 853.828 40.8806C858.124 39.2696 863.225 38.4641 869.133 38.4641C874.906 38.4641 879.739 39.0011 883.632 40.0751C887.66 41.1492 890.882 42.3575 893.299 43.7C895.715 45.0426 897.46 46.318 898.535 47.5263C899.008 47.9469 899.388 48.2851 899.676 48.541C900.103 48.9206 900.347 49.4642 900.347 50.0354V65.0604C900.347 66.1649 899.452 67.0604 898.347 67.0604H885.229C884.125 67.0604 883.229 66.1649 883.229 65.0604V64.4424C883.229 61.7573 881.887 59.6092 879.202 57.9982C876.517 56.3871 873.496 55.5144 870.14 55.3802C866.917 55.1117 863.964 55.7158 861.279 57.1926C858.594 58.5352 857.251 60.9518 857.251 64.4424Z" fill="#F0EADC"/>
<path d="M37.5036 66.5773C39.1087 66.4387 40.6273 67.1315 41.856 68.1735C56.9179 80.9455 82.1246 74.9306 82.1246 84.4844C82.1246 94.0382 56.9179 88.0233 41.856 100.795C40.6273 101.837 39.1087 102.53 37.5036 102.391C25.489 101.354 -3.83759e-07 93.7323 -7.88e-07 84.4844C-1.19224e-06 75.2364 25.489 67.6149 37.5036 66.5773Z" fill="#AE7E00"/>
<path d="M983.065 100.378C981.46 100.516 979.941 99.8235 978.712 98.7816C963.65 86.0096 938.444 92.0245 938.444 82.4707C938.444 72.9169 963.65 78.9318 978.712 66.1598C979.941 65.1179 981.46 64.4251 983.065 64.5637C995.079 65.6012 1020.57 73.2227 1020.57 82.4707C1020.57 91.7187 995.079 99.3402 983.065 100.378Z" fill="#AE7E00"/>
</svg>
